HIERARCHY
ROOT Hips
{
	OFFSET 0.000000 0.000000 0.000000
	CHANNELS 6 Xposition Yposition Zposition Zrotation Xrotation Yrotation
	JOINT Spine
	{
		OFFSET 0.000000 0.100000 0.000000
		CHANNELS 3 Zrotation Xrotation Yrotation
		JOINT Chest
		{
			OFFSET 0.000000 0.250000 0.000000
			CHANNELS 3 Zrotation Xrotation Yrotation
			JOINT Neck
			{
				OFFSET 0.000000 0.100000 0.000000
				CHANNELS 3 Zrotation Xrotation Yrotation
				JOINT Head
				{
					OFFSET 0.000000 0.100000 0.000000
					CHANNELS 3 Zrotation Xrotation Yrotation
					End Site
					{
						OFFSET 0.0 0.0 0.0
					}
				}
			}
			JOINT LeftShoulder
			{
				OFFSET -0.200000 0.000000 0.000000
				CHANNELS 3 Zrotation Xrotation Yrotation
				JOINT LeftArm
				{
					OFFSET -0.150000 0.000000 0.000000
					CHANNELS 3 Zrotation Xrotation Yrotation
					JOINT LeftForeArm
					{
						OFFSET -0.250000 0.000000 0.000000
						CHANNELS 3 Zrotation Xrotation Yrotation
						JOINT LeftHand
						{
							OFFSET -0.100000 0.000000 0.000000
							CHANNELS 3 Zrotation Xrotation Yrotation
							End Site
							{
								OFFSET 0.0 0.0 0.0
							}
						}
					}
				}
			}
			JOINT RightShoulder
			{
				OFFSET 0.200000 0.000000 0.000000
				CHANNELS 3 Zrotation Xrotation Yrotation
				JOINT RightArm
				{
					OFFSET 0.150000 0.000000 0.000000
					CHANNELS 3 Zrotation Xrotation Yrotation
					JOINT RightForeArm
					{
						OFFSET 0.250000 0.000000 0.000000
						CHANNELS 3 Zrotation Xrotation Yrotation
						JOINT RightHand
						{
							OFFSET 0.100000 0.000000 0.000000
							CHANNELS 3 Zrotation Xrotation Yrotation
							End Site
							{
								OFFSET 0.0 0.0 0.0
							}
						}
					}
				}
			}
		}
	}
	JOINT LeftUpLeg
	{
		OFFSET -0.100000 -0.050000 0.000000
		CHANNELS 3 Zrotation Xrotation Yrotation
		JOINT LeftLeg
		{
			OFFSET 0.000000 -0.400000 0.000000
			CHANNELS 3 Zrotation Xrotation Yrotation
			JOINT LeftFoot
			{
				OFFSET 0.000000 -0.400000 0.000000
				CHANNELS 3 Zrotation Xrotation Yrotation
				JOINT LeftToeBase
				{
					OFFSET 0.000000 0.000000 0.100000
					CHANNELS 3 Zrotation Xrotation Yrotation
					End Site
					{
						OFFSET 0.0 0.0 0.0
					}
				}
			}
		}
	}
	JOINT RightUpLeg
	{
		OFFSET 0.100000 -0.050000 0.000000
		CHANNELS 3 Zrotation Xrotation Yrotation
		JOINT RightLeg
		{
			OFFSET 0.000000 -0.400000 0.000000
			CHANNELS 3 Zrotation Xrotation Yrotation
			JOINT RightFoot
			{
				OFFSET 0.000000 -0.400000 0.000000
				CHANNELS 3 Zrotation Xrotation Yrotation
				JOINT RightToeBase
				{
					OFFSET 0.000000 0.000000 0.100000
					CHANNELS 3 Zrotation Xrotation Yrotation
					End Site
					{
						OFFSET 0.0 0.0 0.0
					}
				}
			}
		}
	}
}
MOTION
Frames: 6
Frame Time: 0.033333
0.090729 0.004060 0.001721 0.000000 0.000000 0.000000 0.000000 -41.863453 3.508476 0.000000 72.665069 -72.630597 0.000000 -82.745271 36.563719 0.000000 0.000000 0.000000 53.439670 0.000000 -55.120729 -17.775734 0.000000 -131.002170 -43.847461 0.000000 -160.578065 0.000000 0.000000 0.000000 56.091866 0.000000 -117.946719 -34.536033 0.000000 -77.174903 -52.352581 0.000000 -38.187008 0.000000 0.000000 0.000000 12.578544 169.569609 0.000000 24.841256 -163.333579 0.000000 -34.472290 132.457499 0.000000 0.000000 0.000000 0.000000 -16.694313 -169.744767 0.000000 -14.945695 -149.029632 0.000000 -55.350529 115.373795 0.000000 0.000000 0.000000 0.000000
0.090613 0.004877 0.002424 0.000000 0.000000 0.000000 0.000000 -45.393431 2.612594 0.000000 74.852450 -69.138386 0.000000 -84.022178 38.290869 0.000000 0.000000 0.000000 51.801235 0.000000 -57.666947 -12.082788 0.000000 -128.997351 -43.915472 0.000000 -155.217756 0.000000 0.000000 0.000000 56.530418 0.000000 -122.264914 -25.916265 0.000000 -79.923233 -47.488947 0.000000 -40.442309 0.000000 0.000000 0.000000 12.571408 167.243807 0.000000 26.460761 -169.495336 0.000000 -32.899286 124.074992 0.000000 0.000000 0.000000 0.000000 -16.880527 -169.582235 0.000000 -14.997828 -150.785355 0.000000 -50.799353 110.769297 0.000000 0.000000 0.000000 0.000000
0.090599 0.005782 0.003653 0.000000 0.000000 0.000000 0.000000 -46.275908 1.371290 0.000000 75.098869 -67.803498 0.000000 -83.611246 41.451848 0.000000 0.000000 0.000000 52.737287 0.000000 -60.806548 -12.971036 0.000000 -127.205104 -47.793762 0.000000 -151.439398 0.000000 0.000000 0.000000 56.252614 0.000000 -124.142552 -22.212434 0.000000 -81.903895 -46.101609 0.000000 -41.068049 0.000000 0.000000 0.000000 12.940934 167.521682 0.000000 28.457624 -167.427947 0.000000 -34.296145 125.085145 0.000000 0.000000 0.000000 0.000000 -16.761164 -166.648794 0.000000 -14.543836 -150.910181 0.000000 -45.525900 110.258445 0.000000 0.000000 0.000000 0.000000
0.090310 0.007311 0.004467 0.000000 0.000000 0.000000 0.000000 -44.485708 0.342660 0.000000 76.617286 -65.991375 0.000000 -83.670889 41.295314 0.000000 0.000000 0.000000 54.084777 0.000000 -58.817273 -14.477751 0.000000 -124.624430 -52.025053 0.000000 -164.241899 0.000000 0.000000 0.000000 59.305193 0.000000 -122.209697 -21.777479 0.000000 -86.436910 -47.418089 0.000000 -44.446081 0.000000 0.000000 0.000000 13.340563 167.768520 0.000000 30.079279 -167.177307 0.000000 -31.858473 131.122464 0.000000 0.000000 0.000000 0.000000 -18.164615 -168.037564 0.000000 -14.051973 -150.176157 0.000000 -45.952131 118.465807 0.000000 0.000000 0.000000 0.000000
0.089645 0.010059 0.004508 0.000000 0.000000 0.000000 0.000000 -42.743503 -0.654413 0.000000 79.787872 -62.381428 0.000000 -80.759555 46.507854 0.000000 0.000000 0.000000 52.187682 0.000000 -60.116961 -24.566464 0.000000 -130.125582 -52.529626 0.000000 -158.831155 0.000000 0.000000 0.000000 57.443620 0.000000 -114.524016 -28.833951 0.000000 -90.941249 -50.276451 0.000000 -47.314953 0.000000 0.000000 0.000000 13.795683 168.161699 0.000000 30.671289 -166.114442 0.000000 -28.425229 130.284422 0.000000 0.000000 0.000000 0.000000 -19.910655 -174.882915 0.000000 -9.485965 -154.001487 0.000000 -50.192113 124.814865 0.000000 0.000000 0.000000 0.000000
0.084148 0.018622 0.004643 0.000000 0.000000 0.000000 0.000000 -42.087113 -1.047813 0.000000 81.765428 -58.206608 0.000000 -76.685886 56.918816 0.000000 0.000000 0.000000 50.143083 0.000000 -67.959893 -30.560492 0.000000 -151.982074 -54.209811 0.000000 177.727780 0.000000 0.000000 0.000000 57.084373 0.000000 -108.553818 -31.580448 0.000000 -95.747040 -57.019170 0.000000 -44.426882 0.000000 0.000000 0.000000 13.661120 169.270428 0.000000 32.237297 -167.966020 0.000000 -33.247387 133.842289 0.000000 0.000000 0.000000 0.000000 -20.231403 -174.926192 0.000000 -3.955372 -155.477370 0.000000 -55.166238 130.276335 0.000000 0.000000 0.000000 0.000000
